<?xml version="1.0" standalone="no"?><!DOCTYPE svg PUBLIC "-//W3C//DTD SVG 1.1//EN" "http://www.w3.org/Graphics/SVG/1.1/DTD/svg11.dtd"><svg t="1505634774198" class="icon" style="" viewBox="0 0 1024 1024" version="1.1" xmlns="http://www.w3.org/2000/svg" p-id="1013" xmlns:xlink="http://www.w3.org/1999/xlink" width="36" height="36"><defs><style type="text/css"></style></defs><path d="M513.836323 3.300162c-281.405111 0-509.528716 228.124628-509.528716 509.530762 0 281.405111 228.124628 509.529739 509.528716 509.529739 281.407158 0 509.531785-228.124628 509.531785-509.529739C1023.368108 231.42479 795.243481 3.300162 513.836323 3.300162zM513.837346 1001.118873c-269.673929 0-488.287949-218.615043-488.287949-488.287949 0-269.673929 218.61402-488.287949 488.287949-488.287949 269.673929 0 488.287949 218.61402 488.287949 488.287949C1002.125295 782.50383 783.511275 1001.118873 513.837346 1001.118873z" p-id="1014" fill="#7cba59"></path><path d="M626.950544 367.883695" p-id="1015" fill="#7cba59"></path><path d="M839.108524 295.379381c-28.590152-56.294121-101.258195-106.466823-101.258195-106.466823-57.180304-28.148084-106.022709 0-106.022709 0L279.209608 553.594327l-57.180304 258.826883 256.124332-63.026452 346.660324-357.337501C858.170672 363.910197 839.108524 295.379381 839.108524 295.379381zM574.647317 300.273854c0 0 53.012378-25.087375 103.045911 25.698289L477.558072 532.789489c0 0-79.81686 11.014868-107.215884-23.862477L574.647317 300.273854zM461.474768 717.577099l-91.727121 15.911388c-19.060101-56.292074-75.0503-73.42529-75.0503-73.42529l25.016767-94.231151 29.78128-33.042557c29.782304 34.264385 104.83158 39.162952 104.83158 39.162952-1.192152 51.398624 39.312354 110.139469 39.312354 110.139469L461.474768 717.577099zM724.521766 448.961268 516.944104 658.233526c-32.238238-42.839691-22.157649-102.603843-22.157649-102.603843L697.898409 347.594603C743.806995 389.608485 724.521766 448.961268 724.521766 448.961268zM797.901007 373.85571l-29.186739 27.535123c0-12.235672-17.866926-48.949852-17.866926-48.949852l-39.312354-51.398624c-39.312354-44.056402-91.729168-45.281299-91.729168-45.281299l41.098024-39.160905c31.567973-11.014868 81.602529 12.849656 81.602529 12.849656l54.800094 57.517995C823.513338 353.049848 797.901007 373.85571 797.901007 373.85571z" p-id="1016" fill="#7cba59"></path></svg>