<?xml version="1.0" standalone="no"?><!DOCTYPE svg PUBLIC "-//W3C//DTD SVG 1.1//EN" "http://www.w3.org/Graphics/SVG/1.1/DTD/svg11.dtd"><svg t="1505635807494" class="icon" style="" viewBox="0 0 1024 1024" version="1.1" xmlns="http://www.w3.org/2000/svg" p-id="555" xmlns:xlink="http://www.w3.org/1999/xlink" width="36" height="36"><defs><style type="text/css"></style></defs><path d="M511.4 12.3c-276.1 0-500 223.9-500 500s223.9 500 500 500 500-223.9 500-500S787.5 12.3 511.4 12.3zM536.4 245.9c0.8-39.1 25-70.2 54.1-69.5s52 33 51.2 72c-0.8 39.1-25 70.2-54.1 69.5S535.6 285 536.4 245.9zM442.8 200.3c21.6-9.3 47.9 7.3 58.8 36.9s2.2 61.2-19.3 70.5c-21.6 9.3-47.9-7.3-58.8-36.9C412.6 241.1 421.2 209.5 442.8 200.3zM342.5 276.3c15.5-11.2 38.7-3 51.8 18.3 13.1 21.3 11.2 47.6-4.3 58.8-15.5 11.2-38.7 3-51.8-18.3S327 287.4 342.5 276.3zM308 489.9c-5.9 13.1-23.2 17.2-38.6 9.1-15.4-8.1-23.2-25.3-17.3-38.5 5.9-13.1 23.2-17.2 38.6-9.1S313.9 476.7 308 489.9zM335.1 411.5c-9.3 12.7-28.9 12.7-43.8-0.1-14.9-12.7-19.5-33.4-10.2-46.1 9.3-12.7 28.9-12.7 43.8 0.1C339.8 378.2 344.4 398.8 335.1 411.5zM771.9 778.2c-4.5 38.5-45.7 65.6-86.4 69.8-40.6 4.3-180-58.1-236-110.6-56-52.5-98.6-134.6-105.5-219.2s41.2-139.1 101.6-170.3C506 316.7 585.3 347 613.2 390c27.9 43 2.5 92.1-2.2 152.1-4.6 60 52.7 113.2 101.4 140.8C761.3 710.3 776.4 739.8 771.9 778.2z" p-id="556" fill="#7cba59"></path></svg>